<?xml version="1.0" encoding="utf-8"?>
<!-- Generator: Adobe Illustrator 15.1.0, SVG Export Plug-In . SVG Version: 6.00 Build 0)  -->
<!DOCTYPE svg PUBLIC "-//W3C//DTD SVG 1.1//EN" "http://www.w3.org/Graphics/SVG/1.1/DTD/svg11.dtd">
<svg version="1.1" id="Layer_1" xmlns="http://www.w3.org/2000/svg" xmlns:xlink="http://www.w3.org/1999/xlink" x="0px" y="0px"
	 width="200px" height="100px" viewBox="0 0 200 100" enable-background="new 0 0 200 100" xml:space="preserve">
<filter  id="WhiteGlow">
	<feGaussianBlur  stdDeviation="2" in="SourceAlpha"></feGaussianBlur>
	<feOffset  dx="0" dy="0" result="offsetblur"></feOffset>
	<feFlood  flood-color="#FFFFFF"></feFlood>
	<feComposite  in2="offsetblur" operator="in"></feComposite>
	<feMerge>
		<feMergeNode></feMergeNode>
		<feMergeNode  in="SourceGraphic"></feMergeNode>
	</feMerge>
</filter>
<path fill="#0092B0" filter="url(#WhiteGlow)" d="M81.425,57.311c1.88-7.331,3.179-12.679,3.897-16.046
	c0.718-3.36,1.134-5.895,1.241-7.597c0.126,0.056,0.24,0.096,0.355,0.124c0.107,0.029,0.215,0.042,0.318,0.042
	c0.085,0,0.183-0.013,0.291-0.035c0.103-0.022,0.256-0.062,0.456-0.13c1.959,3.148,3.981,6.259,6.061,9.335
	c2.079,3.075,4.22,6.117,6.425,9.12l2.05-10.435c0.269-1.379,0.502-2.701,0.701-3.96c0.198-1.264,0.381-2.517,0.535-3.765
	c0.444,0.08,0.741,0.125,0.883,0.143c0.147,0.017,0.256,0.023,0.336,0.023c0.154,0,0.336-0.013,0.541-0.034
	c0.205-0.022,0.496-0.062,0.859-0.131c-1.087,4.016-2.061,7.996-2.911,11.945c-0.854,3.942-1.577,7.843-2.181,11.705
	c-0.118-0.046-0.239-0.075-0.36-0.097c-0.111-0.022-0.222-0.035-0.322-0.035c-0.075,0-0.166,0.013-0.274,0.035
	c-0.108,0.021-0.222,0.051-0.342,0.097c-0.689-1.179-1.453-2.41-2.285-3.696c-0.837-1.286-1.862-2.785-3.075-4.5l-7.137-10.117
	l-1.658,7.696c-0.308,1.459-0.61,3.041-0.906,4.739c-0.295,1.705-0.581,3.561-0.859,5.576c-0.371-0.066-0.655-0.106-0.86-0.131
	c-0.206-0.021-0.388-0.033-0.541-0.033c-0.103,0-0.235,0.012-0.405,0.033C82.092,57.203,81.812,57.243,81.425,57.311 M57.814,57.311
	c3.452-4.996,6.43-9.553,8.954-13.666c2.518-4.119,4.42-7.524,5.696-10.23c0.161,0.057,0.302,0.09,0.428,0.114
	c0.131,0.024,0.24,0.035,0.324,0.035c0.114,0,0.245-0.011,0.393-0.041c0.155-0.029,0.309-0.062,0.479-0.108
	c0.946,5.673,1.863,10.652,2.752,14.942c0.888,4.29,1.611,7.273,2.169,8.954c-0.57-0.066-1.008-0.106-1.316-0.131
	c-0.313-0.021-0.58-0.033-0.803-0.033c-0.153,0-0.358,0.012-0.609,0.033c-0.25,0.023-0.706,0.063-1.378,0.131
	c-0.109-1.305-0.233-2.494-0.365-3.582c-0.138-1.082-0.273-2.033-0.416-2.844L73.7,48.561c-0.32-0.011-0.775-0.028-1.368-0.062
	c-1.253-0.044-2.084-0.069-2.482-0.069c-0.445,0-1.357,0.029-2.723,0.085c-0.548,0.024-0.963,0.034-1.253,0.045l-1.869,3.344
	c-0.541,0.979-1.048,1.908-1.516,2.785c-0.472,0.879-0.934,1.75-1.389,2.621c-0.387-0.053-0.718-0.092-0.991-0.119
	c-0.274-0.028-0.507-0.047-0.696-0.047c-0.187,0-0.397,0.013-0.631,0.035C58.549,57.203,58.225,57.243,57.814,57.311z M66.779,46.75
	c0.274,0.011,0.673,0.028,1.186,0.063c0.98,0.044,1.618,0.068,1.919,0.068c0.598,0,1.584-0.035,2.95-0.103
	c0.212-0.011,0.376-0.017,0.502-0.028l-1.618-8.481L66.779,46.75z M58.423,38.269c-0.7-1.1-1.571-1.914-2.603-2.444
	c-1.037-0.53-2.29-0.792-3.754-0.792c-1.618,0-3.076,0.335-4.375,1.001c-1.304,0.667-2.41,1.652-3.321,2.951
	c-0.836,1.201-1.481,2.558-1.941,4.067c-0.462,1.505-0.695,3.03-0.695,4.58c0,2.66,0.678,4.745,2.028,6.267
	c1.35,1.521,3.207,2.277,5.565,2.277c1.458,0,2.849-0.289,4.17-0.865c1.327-0.58,2.62-1.476,3.89-2.688l0.251,0.318
	c-0.257,0.467-0.467,0.969-0.631,1.51c-0.172,0.542-0.303,1.128-0.406,1.76c-1.343,0.535-2.62,0.93-3.827,1.191
	c-1.208,0.262-2.388,0.393-3.543,0.393c-3.429,0-6.112-0.928-8.055-2.786c-1.943-1.862-2.911-4.42-2.911-7.678
	c0-1.76,0.319-3.464,0.952-5.11c0.632-1.647,1.544-3.122,2.734-4.42c1.316-1.446,2.865-2.524,4.648-3.235
	c1.789-0.711,3.817-1.072,6.083-1.072c1.357,0,2.667,0.144,3.926,0.435c1.253,0.289,2.404,0.711,3.452,1.269
	c-0.28,0.467-0.514,0.957-0.712,1.47c-0.194,0.512-0.343,1.043-0.439,1.601H58.423z"/>
<g filter="url(#WhiteGlow)">
	<path fill="#8A9493" d="M115.805,21.937c0.489-2.464,0.877-4.48,1.139-5.866c7.771,0.031,15.303,0.404,22.463,1.085
		c-6.988-1.057-14.455-1.8-22.254-2.196c0.119-0.628,0.182-0.972,0.182-0.972l-2.682-2.931c0,0-0.289,1.382-0.784,3.754
		c-3.16-0.119-6.369-0.182-9.622-0.182c-48.324,0-87.5,13.45-87.5,30.039c0,13.799,27.105,25.425,64.03,28.946
		C49.955,68.97,28.431,58.398,28.431,46.101c0-16.325,37.927-29.608,85.174-30.032c-0.347,1.651-0.767,3.652-1.242,5.917
		c-8.012,0.237-15.637,1.315-22.618,2.414c5.483-0.543,11.267-0.841,17.229-0.841c1.711,0,3.385,0.034,5.039,0.084
		c-3.06,14.524-8.053,37.996-10.953,50.396c4.797-5.15,11.229-34.597,14.375-50.256c30.771,1.606,51.016,11.839,51.32,22.262
		c0.279,9.419-11.35,17.521-33.967,21.081c27.43-1.487,49.938-11.604,49.938-22.177C182.729,32.267,151.172,21.984,115.805,21.937z"
		/>
</g>
<path fill="#0092B0" filter="url(#WhiteGlow)" d="M127.962,57.311c3.452-4.996,6.431-9.552,8.953-13.666
	c2.521-4.117,4.422-7.524,5.698-10.23c0.158,0.058,0.301,0.09,0.428,0.115c0.132,0.022,0.236,0.034,0.322,0.034
	c0.115,0,0.244-0.011,0.395-0.04c0.154-0.028,0.309-0.063,0.479-0.109c0.945,5.673,1.861,10.652,2.75,14.942
	c0.89,4.29,1.611,7.274,2.17,8.954c-0.569-0.066-1.006-0.105-1.314-0.131c-0.312-0.021-0.58-0.033-0.803-0.033
	c-0.154,0-0.359,0.012-0.609,0.033c-0.25,0.024-0.705,0.063-1.38,0.131c-0.106-1.305-0.231-2.494-0.364-3.582
	c-0.135-1.082-0.271-2.033-0.416-2.843l-0.42-2.324c-0.318-0.011-0.773-0.028-1.365-0.062c-1.256-0.044-2.086-0.068-2.485-0.068
	c-0.444,0-1.356,0.028-2.724,0.085c-0.547,0.023-0.963,0.035-1.254,0.045l-1.867,3.344c-0.539,0.979-1.049,1.906-1.516,2.785
	c-0.473,0.879-0.935,1.75-1.391,2.619c-0.389-0.052-0.717-0.09-0.99-0.119c-0.273-0.026-0.507-0.045-0.695-0.045
	c-0.188,0-0.397,0.012-0.633,0.033C128.695,57.204,128.372,57.243,127.962,57.311 M136.928,46.75
	c0.273,0.011,0.674,0.028,1.184,0.063c0.981,0.045,1.619,0.068,1.922,0.068c0.598,0,1.585-0.034,2.951-0.103
	c0.209-0.011,0.375-0.017,0.5-0.028l-1.616-8.481L136.928,46.75z M112.314,55.355c0.278-0.455,0.518-0.95,0.729-1.491
	c0.205-0.541,0.382-1.146,0.541-1.812h0.564c0.312,1.321,0.904,2.33,1.771,3.021c0.866,0.688,1.979,1.034,3.338,1.034
	c1.658,0,2.997-0.478,4.022-1.44c1.02-0.962,1.533-2.228,1.533-3.782c0-1.634-1.363-3.207-4.086-4.705
	c-0.068-0.034-0.121-0.062-0.152-0.084c-2.059-1.135-3.377-2.115-3.959-2.94c-0.588-0.82-0.879-1.868-0.879-3.132
	c0-1.869,0.725-3.406,2.171-4.615c1.446-1.206,3.356-1.812,5.725-1.812c1.229,0,2.365,0.148,3.401,0.445
	c1.035,0.297,1.98,0.747,2.836,1.361c-0.301,0.445-0.547,0.901-0.739,1.374c-0.2,0.473-0.331,0.968-0.411,1.492l-0.414-0.069
	c-0.525-1.087-1.203-1.909-2.027-2.466c-0.834-0.553-1.795-0.832-2.9-0.832c-1.365,0-2.482,0.393-3.344,1.185
	c-0.86,0.793-1.292,1.8-1.292,3.038c0,1.543,1.344,3.059,4.036,4.532c0.423,0.234,0.736,0.411,0.936,0.518
	c1.504,0.85,2.553,1.704,3.146,2.57c0.598,0.872,0.893,1.931,0.893,3.19c0,2.209-0.832,4.062-2.499,5.538
	c-1.669,1.479-3.789,2.221-6.347,2.221c-1.334,0-2.559-0.199-3.682-0.592C114.107,56.706,113.141,56.126,112.314,55.355z"/>
<path fill="#0092B0" filter="url(#WhiteGlow)" d="M155.453,83.302c0.033-0.069,0.059-0.146,0.076-0.229
	c0.017-0.083,0.029-0.167,0.035-0.257c0.07,0.012,0.146,0.017,0.223,0.021c0.074,0.006,0.15,0.009,0.225,0.009h0.154
	c0.023-0.104,0.049-0.236,0.075-0.4c0.024-0.164,0.057-0.387,0.092-0.663c0.229-0.085,0.448-0.171,0.657-0.259
	c0.211-0.086,0.414-0.174,0.613-0.262l0.094,0.08c-0.067,0.231-0.133,0.471-0.191,0.721c-0.062,0.248-0.117,0.511-0.172,0.782h0.174
	c0.09,0,0.188-0.002,0.29-0.008c0.103-0.004,0.208-0.009,0.317-0.021c-0.022,0.058-0.041,0.123-0.057,0.201
	c-0.016,0.076-0.029,0.176-0.041,0.289c-0.074-0.009-0.151-0.017-0.234-0.021c-0.081-0.008-0.164-0.01-0.249-0.01
	c-0.028,0-0.078,0.002-0.142,0.008c-0.064,0.004-0.115,0.006-0.148,0.006c-0.205,0.855-0.355,1.529-0.453,2.023
	c-0.094,0.494-0.141,0.847-0.141,1.055c0,0.138,0.045,0.24,0.138,0.312c0.094,0.071,0.229,0.107,0.411,0.107
	c0.062,0,0.121-0.001,0.18-0.006c0.057-0.006,0.109-0.012,0.159-0.021c-0.034,0.062-0.062,0.117-0.086,0.168
	c-0.021,0.051-0.041,0.1-0.056,0.148c-0.148,0.043-0.289,0.076-0.418,0.099c-0.131,0.023-0.256,0.034-0.373,0.034
	c-0.349,0-0.625-0.096-0.822-0.284c-0.202-0.188-0.303-0.446-0.303-0.776c0-0.192,0.095-0.699,0.285-1.521
	c0.127-0.555,0.227-0.999,0.301-1.341c-0.029-0.006-0.058-0.01-0.086-0.012s-0.072-0.002-0.131-0.002
	c-0.062,0-0.127,0.002-0.195,0.01C155.587,83.29,155.52,83.297,155.453,83.302 M151.43,87.129c0.176-0.688,0.336-1.393,0.48-2.111
	c0.146-0.721,0.275-1.453,0.395-2.201c0.088,0.014,0.18,0.021,0.274,0.026c0.097,0.005,0.198,0.011,0.312,0.011
	c0.106,0,0.211-0.006,0.307-0.011c0.099-0.007,0.188-0.014,0.271-0.026c-0.023,0.104-0.049,0.22-0.074,0.346
	c-0.028,0.129-0.057,0.266-0.084,0.412l-0.043,0.197h0.053c0.173-0.363,0.371-0.631,0.597-0.799
	c0.226-0.171,0.485-0.256,0.789-0.256c0.032,0.003,0.067,0.006,0.101,0.01c0.037,0.006,0.09,0.016,0.164,0.028
	c-0.064,0.185-0.115,0.379-0.15,0.578c-0.035,0.201-0.055,0.41-0.057,0.627c-0.094-0.047-0.19-0.08-0.291-0.104
	c-0.1-0.021-0.209-0.03-0.324-0.03c-0.395,0-0.686,0.194-0.879,0.589c-0.193,0.393-0.371,1.298-0.533,2.715
	c-0.121-0.014-0.232-0.023-0.342-0.031c-0.106-0.008-0.209-0.012-0.308-0.012s-0.2,0.002-0.306,0.01
	C151.675,87.105,151.559,87.114,151.43,87.129z M146.342,85.311c0-0.369,0.079-0.729,0.243-1.08c0.163-0.351,0.39-0.651,0.685-0.906
	c0.229-0.203,0.487-0.357,0.778-0.465c0.293-0.105,0.601-0.16,0.923-0.16c0.635,0,1.133,0.166,1.49,0.496
	c0.357,0.336,0.537,0.793,0.537,1.377c0,0.361-0.079,0.721-0.234,1.074c-0.158,0.352-0.373,0.654-0.648,0.908
	c-0.244,0.225-0.516,0.396-0.815,0.51c-0.302,0.117-0.622,0.175-0.967,0.175c-0.653,0-1.147-0.161-1.487-0.487
	C146.51,86.426,146.342,85.945,146.342,85.311z M149.044,83.094c-0.166,0-0.323,0.051-0.478,0.151
	c-0.148,0.1-0.283,0.239-0.396,0.421c-0.188,0.296-0.341,0.654-0.46,1.075c-0.118,0.422-0.178,0.813-0.178,1.174
	c0,0.3,0.061,0.526,0.184,0.687c0.122,0.158,0.296,0.236,0.524,0.236c0.176,0,0.346-0.049,0.51-0.15
	c0.164-0.098,0.3-0.237,0.409-0.416c0.204-0.323,0.36-0.68,0.478-1.069c0.115-0.396,0.174-0.774,0.174-1.14
	c0-0.307-0.067-0.543-0.203-0.713C149.475,83.18,149.285,83.094,149.044,83.094z M143.271,86.698c0.334,0,0.619-0.236,0.857-0.708
	c0.237-0.477,0.357-1.057,0.357-1.749c0-0.3-0.059-0.527-0.178-0.683c-0.117-0.158-0.289-0.235-0.509-0.235
	c-0.159,0-0.312,0.048-0.452,0.145s-0.252,0.229-0.326,0.396c-0.138,0.278-0.244,0.595-0.326,0.95
	c-0.082,0.353-0.119,0.691-0.119,1.019c0,0.278,0.061,0.494,0.18,0.644C142.875,86.623,143.048,86.698,143.271,86.698z
	 M143.055,82.816l-0.137,0.567c0.16-0.22,0.352-0.389,0.576-0.508c0.224-0.119,0.468-0.179,0.729-0.179
	c0.48,0,0.852,0.15,1.112,0.455c0.261,0.303,0.392,0.732,0.392,1.295c0,0.787-0.205,1.451-0.617,1.99
	c-0.412,0.541-0.914,0.81-1.506,0.81c-0.258,0-0.487-0.056-0.691-0.162c-0.204-0.11-0.389-0.274-0.553-0.496
	c-0.199,0.869-0.344,1.522-0.43,1.964c-0.084,0.44-0.14,0.784-0.162,1.034c-0.09-0.017-0.185-0.024-0.285-0.034
	c-0.102-0.007-0.215-0.011-0.346-0.011c-0.129,0-0.246,0.004-0.35,0.011c-0.104,0.01-0.198,0.02-0.287,0.034
	c0.374-1.639,0.684-3.067,0.921-4.288c0.239-1.218,0.375-2.046,0.411-2.482c0.091,0.013,0.186,0.02,0.286,0.025
	c0.104,0.006,0.21,0.01,0.323,0.01c0.117,0,0.227-0.004,0.328-0.01C142.872,82.836,142.966,82.829,143.055,82.816z M137.966,86.698
	c0.334,0,0.62-0.236,0.858-0.708c0.238-0.477,0.359-1.057,0.359-1.749c0-0.3-0.062-0.527-0.18-0.683
	c-0.119-0.158-0.288-0.235-0.508-0.235c-0.161,0-0.312,0.048-0.452,0.145c-0.142,0.097-0.252,0.229-0.33,0.396
	c-0.136,0.278-0.241,0.595-0.323,0.95c-0.08,0.353-0.119,0.691-0.119,1.019c0,0.278,0.06,0.494,0.179,0.644
	C137.57,86.623,137.741,86.698,137.966,86.698z M137.751,82.816l-0.138,0.567c0.158-0.22,0.351-0.389,0.576-0.508
	c0.225-0.119,0.469-0.179,0.729-0.179c0.48,0,0.852,0.15,1.111,0.455c0.262,0.303,0.391,0.732,0.391,1.295
	c0,0.787-0.206,1.451-0.617,1.99c-0.41,0.541-0.91,0.81-1.504,0.81c-0.26,0-0.488-0.056-0.691-0.162
	c-0.205-0.11-0.389-0.274-0.555-0.496c-0.197,0.869-0.341,1.522-0.428,1.964c-0.085,0.44-0.143,0.784-0.163,1.034
	c-0.089-0.017-0.185-0.024-0.282-0.034c-0.104-0.007-0.218-0.011-0.348-0.011c-0.129,0-0.246,0.004-0.352,0.011
	c-0.103,0.01-0.197,0.02-0.285,0.034c0.375-1.639,0.682-3.067,0.92-4.288c0.24-1.218,0.377-2.046,0.412-2.482
	c0.091,0.013,0.186,0.02,0.287,0.025s0.209,0.01,0.322,0.01c0.117,0,0.229-0.004,0.327-0.01
	C137.566,82.836,137.66,82.829,137.751,82.816z M135.296,82.816c-0.188,0.76-0.354,1.496-0.502,2.214
	c-0.146,0.718-0.272,1.417-0.388,2.099c-0.114-0.015-0.221-0.023-0.321-0.033c-0.099-0.008-0.192-0.01-0.282-0.01
	c-0.092,0-0.187,0.002-0.283,0.01c-0.1,0.01-0.203,0.02-0.311,0.033c0.029-0.1,0.059-0.201,0.084-0.311
	c0.023-0.106,0.049-0.231,0.072-0.377c-0.205,0.252-0.441,0.447-0.711,0.586c-0.271,0.135-0.549,0.203-0.836,0.203
	c-0.369,0-0.648-0.09-0.84-0.267c-0.19-0.178-0.285-0.438-0.285-0.78c0-0.176,0.082-0.643,0.246-1.397
	c0.162-0.757,0.291-1.412,0.388-1.97c0.098,0.013,0.202,0.02,0.307,0.025c0.109,0.006,0.226,0.01,0.347,0.01
	c0.127,0,0.244-0.004,0.351-0.01c0.108-0.007,0.21-0.014,0.312-0.025c-0.234,0.817-0.42,1.521-0.558,2.106
	c-0.136,0.588-0.204,0.966-0.204,1.134c0,0.164,0.041,0.293,0.123,0.389c0.078,0.095,0.188,0.143,0.321,0.143
	c0.44,0,0.782-0.261,1.03-0.781c0.246-0.521,0.468-1.52,0.662-2.99c0.102,0.014,0.207,0.021,0.312,0.026
	c0.107,0.005,0.221,0.011,0.342,0.011c0.122,0,0.235-0.006,0.336-0.011C135.107,82.836,135.203,82.829,135.296,82.816z
	 M125.775,86.605c0.113-0.256,0.215-0.494,0.307-0.717c0.09-0.224,0.164-0.408,0.215-0.555l0.071,0.038
	c0.011,0.422,0.141,0.753,0.389,0.995c0.248,0.244,0.579,0.365,0.992,0.365c0.3,0,0.556-0.09,0.755-0.268
	c0.203-0.176,0.303-0.396,0.303-0.66c0-0.375-0.365-0.835-1.097-1.377c-0.083-0.058-0.146-0.104-0.188-0.136
	c-0.342-0.257-0.584-0.506-0.731-0.752c-0.149-0.245-0.224-0.526-0.224-0.836c0-0.533,0.19-0.97,0.574-1.315
	c0.381-0.346,0.875-0.518,1.479-0.518c0.359,0,0.691,0.051,0.994,0.146c0.304,0.099,0.57,0.246,0.798,0.438
	c-0.078,0.13-0.151,0.271-0.224,0.422s-0.137,0.316-0.197,0.498l-0.073-0.025c-0.092-0.316-0.248-0.564-0.467-0.74
	c-0.22-0.174-0.478-0.264-0.774-0.264c-0.301,0-0.547,0.081-0.734,0.244c-0.188,0.163-0.283,0.372-0.283,0.633
	c0,0.297,0.32,0.688,0.962,1.172c0.08,0.062,0.14,0.109,0.18,0.141c0.493,0.383,0.806,0.688,0.94,0.916
	c0.136,0.229,0.203,0.49,0.203,0.785c0,0.589-0.199,1.066-0.601,1.44c-0.399,0.373-0.917,0.56-1.55,0.56
	c-0.384,0-0.743-0.051-1.077-0.156C126.381,86.977,126.068,86.816,125.775,86.605z M119.32,83.78c0-0.36,0.127-0.666,0.382-0.919
	c0.256-0.252,0.562-0.377,0.922-0.377c0.358,0,0.664,0.125,0.918,0.38c0.254,0.254,0.381,0.56,0.381,0.916s-0.128,0.665-0.386,0.923
	c-0.256,0.255-0.562,0.383-0.92,0.383c-0.361,0-0.668-0.128-0.92-0.383C119.447,84.448,119.32,84.141,119.32,83.78z M114.184,87.059
	c-0.152,0.062-0.32,0.107-0.5,0.144c-0.18,0.03-0.381,0.047-0.6,0.047c-0.686,0-1.23-0.172-1.632-0.521
	c-0.402-0.345-0.603-0.812-0.603-1.399c0-0.767,0.227-1.394,0.68-1.886c0.455-0.487,1.035-0.735,1.742-0.735
	c0.563,0,0.992,0.144,1.289,0.431c0.295,0.285,0.443,0.696,0.443,1.236c-0.003,0.104-0.012,0.213-0.023,0.334
	c-0.015,0.12-0.033,0.249-0.061,0.387c-0.121,0-0.309-0.002-0.562-0.005c-0.256-0.003-0.445-0.004-0.578-0.004
	c-0.356,0-0.9,0.006-1.633,0.019h-0.049c-0.012,0.074-0.021,0.146-0.025,0.213c-0.004,0.066-0.004,0.125-0.004,0.183
	c0,0.416,0.109,0.731,0.33,0.953c0.223,0.217,0.545,0.325,0.967,0.325c0.181,0,0.354-0.021,0.52-0.065
	c0.164-0.043,0.32-0.11,0.471-0.2l0.108,0.086c-0.046,0.061-0.093,0.125-0.137,0.2C114.279,86.873,114.232,86.959,114.184,87.059z
	 M112.146,84.686c0.199,0.01,0.356,0.015,0.471,0.019c0.113,0.004,0.224,0.005,0.326,0.005c0.093,0,0.197,0,0.313-0.001
	s0.294-0.009,0.529-0.017c0.038-0.14,0.067-0.271,0.087-0.398c0.023-0.131,0.031-0.253,0.031-0.367c0-0.263-0.047-0.46-0.146-0.588
	c-0.095-0.13-0.238-0.195-0.431-0.195c-0.306,0-0.554,0.129-0.747,0.381C112.389,83.775,112.244,84.165,112.146,84.686z
	 M108.113,83.302c0.031-0.069,0.056-0.146,0.074-0.229c0.018-0.083,0.03-0.167,0.035-0.257c0.073,0.012,0.146,0.017,0.221,0.021
	c0.076,0.006,0.152,0.009,0.227,0.009h0.154c0.023-0.104,0.049-0.236,0.074-0.4s0.06-0.387,0.093-0.663
	c0.231-0.085,0.448-0.171,0.657-0.259c0.209-0.086,0.414-0.174,0.613-0.262l0.092,0.08c-0.065,0.231-0.131,0.471-0.189,0.721
	c-0.061,0.248-0.116,0.511-0.169,0.782h0.171c0.092,0,0.188-0.002,0.29-0.008c0.103-0.004,0.208-0.009,0.315-0.021
	c-0.021,0.058-0.037,0.123-0.056,0.201c-0.015,0.076-0.03,0.176-0.04,0.289c-0.072-0.009-0.15-0.017-0.234-0.021
	c-0.082-0.008-0.166-0.01-0.25-0.01c-0.027,0-0.078,0.002-0.141,0.008c-0.064,0.004-0.115,0.006-0.148,0.006
	c-0.205,0.855-0.356,1.529-0.451,2.023c-0.096,0.494-0.143,0.847-0.143,1.055c0,0.138,0.045,0.24,0.137,0.312
	c0.095,0.071,0.229,0.107,0.412,0.107c0.062,0,0.121-0.001,0.179-0.006c0.057-0.006,0.108-0.012,0.159-0.021
	c-0.032,0.062-0.062,0.117-0.084,0.168c-0.023,0.051-0.043,0.1-0.057,0.148c-0.148,0.043-0.289,0.076-0.418,0.099
	c-0.132,0.023-0.256,0.034-0.373,0.034c-0.349,0-0.623-0.096-0.822-0.284c-0.201-0.188-0.303-0.446-0.303-0.776
	c0-0.192,0.094-0.699,0.285-1.521c0.125-0.555,0.227-0.999,0.301-1.341c-0.026-0.006-0.057-0.01-0.084-0.012
	c-0.031-0.002-0.074-0.002-0.134-0.002c-0.062,0-0.125,0.002-0.194,0.01C108.245,83.29,108.178,83.297,108.113,83.302z
	 M105.747,84.836h-0.065c-0.438,0-0.775,0.094-1.004,0.275c-0.229,0.187-0.347,0.455-0.347,0.813c0,0.222,0.042,0.39,0.125,0.498
	c0.084,0.11,0.212,0.166,0.381,0.166c0.246,0,0.435-0.116,0.565-0.353C105.533,86.003,105.646,85.536,105.747,84.836z
	 M105.493,86.59c-0.134,0.221-0.294,0.391-0.479,0.496c-0.188,0.107-0.408,0.162-0.666,0.162c-0.371,0-0.666-0.111-0.89-0.332
	c-0.222-0.223-0.332-0.516-0.332-0.886c0-0.451,0.146-0.789,0.435-1.011c0.287-0.225,0.815-0.379,1.584-0.467
	c0.016,0,0.041-0.003,0.08-0.01c0.471-0.05,0.705-0.277,0.705-0.689c0-0.207-0.07-0.367-0.209-0.479s-0.334-0.169-0.59-0.169
	c-0.195,0-0.376,0.038-0.54,0.115c-0.165,0.078-0.302,0.188-0.414,0.33l-0.044-0.017c0.024-0.12,0.042-0.224,0.057-0.315
	c0.013-0.09,0.021-0.172,0.027-0.241c0.196-0.122,0.416-0.22,0.662-0.282c0.244-0.064,0.51-0.097,0.793-0.097
	c0.451,0,0.803,0.097,1.053,0.288c0.248,0.191,0.373,0.457,0.373,0.804c0,0.194-0.076,0.618-0.226,1.265
	c-0.015,0.071-0.026,0.125-0.035,0.163c-0.021,0.089-0.049,0.208-0.082,0.364c-0.116,0.49-0.174,0.793-0.174,0.908
	c0,0.105,0.028,0.188,0.08,0.242c0.054,0.054,0.133,0.08,0.237,0.08c0.033,0,0.064-0.002,0.097-0.006
	c0.032-0.005,0.069-0.012,0.11-0.018l-0.027,0.212c-0.1,0.062-0.208,0.106-0.33,0.138c-0.118,0.026-0.251,0.041-0.4,0.041
	c-0.217,0-0.402-0.049-0.551-0.15C105.65,86.926,105.548,86.78,105.493,86.59z M102.211,87.077
	c-0.188,0.052-0.373,0.093-0.559,0.118c-0.187,0.029-0.371,0.043-0.553,0.043c-0.694,0-1.222-0.159-1.581-0.48
	c-0.357-0.32-0.537-0.791-0.537-1.412c0-0.771,0.25-1.402,0.751-1.896s1.151-0.742,1.953-0.742c0.27,0,0.524,0.028,0.771,0.084
	c0.244,0.056,0.478,0.14,0.696,0.251c-0.073,0.15-0.145,0.309-0.207,0.477c-0.064,0.166-0.129,0.349-0.192,0.545l-0.133,0.014
	c0.004-0.018,0.006-0.039,0.006-0.061c0.003-0.021,0.004-0.052,0.004-0.092c0-0.249-0.078-0.445-0.231-0.594
	c-0.152-0.148-0.359-0.225-0.617-0.225c-0.436,0-0.809,0.225-1.117,0.67c-0.31,0.445-0.465,0.99-0.465,1.644
	c0,0.424,0.112,0.761,0.336,1.011c0.222,0.248,0.52,0.373,0.896,0.373c0.205,0,0.383-0.027,0.535-0.085
	c0.152-0.059,0.282-0.146,0.393-0.267l0.068,0.08c-0.043,0.107-0.082,0.206-0.117,0.295
	C102.273,86.913,102.242,86.998,102.211,87.077z M98.537,82.816c-0.188,0.76-0.355,1.496-0.501,2.214
	c-0.148,0.718-0.275,1.417-0.389,2.099c-0.114-0.015-0.221-0.023-0.321-0.033c-0.099-0.008-0.193-0.01-0.284-0.01
	c-0.09,0-0.185,0.002-0.283,0.01c-0.098,0.01-0.202,0.02-0.31,0.033c0.031-0.1,0.06-0.201,0.085-0.311
	c0.024-0.106,0.049-0.231,0.071-0.377c-0.204,0.252-0.441,0.447-0.71,0.586c-0.271,0.135-0.55,0.203-0.835,0.203
	c-0.37,0-0.65-0.09-0.842-0.267c-0.189-0.178-0.285-0.438-0.285-0.78c0-0.176,0.083-0.643,0.247-1.397
	c0.163-0.757,0.292-1.412,0.388-1.97c0.098,0.013,0.201,0.02,0.308,0.025c0.108,0.006,0.224,0.01,0.347,0.01
	c0.125,0,0.242-0.004,0.349-0.01c0.108-0.007,0.21-0.014,0.312-0.025c-0.234,0.817-0.42,1.521-0.557,2.106
	c-0.138,0.588-0.205,0.966-0.205,1.134c0,0.164,0.041,0.293,0.122,0.389c0.079,0.095,0.187,0.143,0.323,0.143
	c0.439,0,0.783-0.261,1.029-0.781c0.248-0.521,0.469-1.52,0.662-2.99c0.102,0.014,0.207,0.021,0.313,0.026
	c0.106,0.005,0.221,0.011,0.341,0.011c0.124,0,0.236-0.006,0.336-0.011C98.35,82.836,98.443,82.829,98.537,82.816z M91.29,87.129
	l0.131-0.566c-0.161,0.23-0.352,0.405-0.57,0.521c-0.221,0.116-0.471,0.174-0.754,0.174c-0.456,0-0.818-0.157-1.084-0.468
	c-0.268-0.312-0.402-0.74-0.402-1.283c0-0.367,0.056-0.726,0.162-1.068c0.107-0.346,0.26-0.648,0.458-0.916
	c0.203-0.275,0.432-0.481,0.685-0.617c0.253-0.139,0.533-0.205,0.838-0.205c0.282,0,0.521,0.057,0.723,0.17
	c0.201,0.113,0.369,0.285,0.504,0.517l0.294-1.315c0.055-0.232,0.109-0.486,0.16-0.76c0.051-0.272,0.104-0.584,0.156-0.933
	c0.097,0.013,0.199,0.021,0.305,0.026c0.108,0.005,0.222,0.007,0.345,0.007c0.12,0,0.234-0.002,0.342-0.007
	c0.107-0.008,0.209-0.016,0.306-0.026c-0.345,1.313-0.633,2.554-0.866,3.711c-0.235,1.157-0.404,2.171-0.507,3.041
	c-0.113-0.015-0.222-0.022-0.321-0.032c-0.103-0.009-0.202-0.011-0.297-0.011c-0.091,0-0.188,0.002-0.285,0.011
	C91.514,87.105,91.406,87.114,91.29,87.129z M91.06,83.238c-0.169,0-0.33,0.07-0.483,0.214c-0.152,0.142-0.287,0.348-0.408,0.618
	c-0.098,0.225-0.178,0.502-0.244,0.83c-0.066,0.328-0.1,0.636-0.1,0.924c0,0.287,0.058,0.504,0.17,0.652
	c0.113,0.148,0.279,0.222,0.499,0.222c0.161,0,0.312-0.046,0.453-0.142c0.142-0.094,0.255-0.221,0.34-0.383
	c0.137-0.263,0.248-0.585,0.333-0.966c0.085-0.378,0.128-0.758,0.128-1.138c0-0.256-0.062-0.459-0.187-0.608
	S91.269,83.238,91.06,83.238z M83.891,87.129c0.288-1.059,0.536-2.104,0.744-3.129c0.208-1.027,0.375-2.034,0.5-3.021
	c0.247,0.021,0.502,0.037,0.765,0.049c0.261,0.013,0.532,0.019,0.811,0.019c0.254,0,0.542-0.006,0.864-0.019
	c0.321-0.012,0.663-0.025,1.026-0.045c-0.044,0.109-0.077,0.226-0.1,0.347c-0.022,0.121-0.032,0.247-0.032,0.373
	c-0.281-0.029-0.543-0.052-0.786-0.066c-0.244-0.015-0.478-0.022-0.7-0.022c-0.073,0-0.152,0-0.234,0.003
	c-0.08,0.001-0.208,0.007-0.38,0.016c-0.042,0.103-0.083,0.228-0.121,0.371c-0.04,0.146-0.078,0.308-0.113,0.481l-0.215,1.082
	c0.32,0,0.659-0.006,1.016-0.02c0.357-0.012,0.741-0.027,1.146-0.053c-0.04,0.105-0.07,0.219-0.09,0.335
	c-0.018,0.116-0.029,0.235-0.029,0.354c-0.323-0.025-0.641-0.045-0.954-0.06c-0.313-0.013-0.625-0.021-0.937-0.021h-0.271
	l-0.226,1.231c-0.053,0.269-0.089,0.49-0.114,0.659c-0.024,0.17-0.042,0.337-0.057,0.495h0.207c0.287,0,0.594-0.007,0.92-0.024
	c0.327-0.017,0.676-0.043,1.045-0.074c-0.044,0.12-0.077,0.243-0.101,0.368s-0.036,0.248-0.036,0.369
	c-0.301-0.019-0.6-0.03-0.898-0.039c-0.297-0.008-0.595-0.013-0.89-0.013c-0.292,0-0.587,0.005-0.88,0.013
	C84.479,87.1,84.185,87.109,83.891,87.129z M77.24,83.78c0-0.36,0.127-0.666,0.383-0.919c0.254-0.252,0.562-0.377,0.922-0.377
	c0.358,0,0.664,0.125,0.917,0.38c0.254,0.254,0.38,0.56,0.38,0.916s-0.128,0.665-0.384,0.923c-0.257,0.255-0.565,0.383-0.92,0.383
	c-0.362,0-0.667-0.128-0.92-0.383C77.366,84.448,77.24,84.141,77.24,83.78z M68.104,87.129c0.268-1.105,0.516-2.227,0.748-3.354
	c0.231-1.129,0.444-2.265,0.638-3.407c0.102,0.012,0.208,0.021,0.317,0.024c0.111,0.006,0.227,0.01,0.35,0.01
	c0.123,0,0.237-0.004,0.343-0.01c0.105-0.004,0.207-0.014,0.304-0.024c-0.15,0.481-0.287,0.983-0.41,1.499s-0.236,1.058-0.337,1.619
	c0.207-0.258,0.439-0.45,0.695-0.578c0.256-0.127,0.539-0.191,0.847-0.191c0.363,0,0.637,0.088,0.823,0.26
	c0.186,0.176,0.279,0.436,0.279,0.777c0,0.18-0.085,0.646-0.255,1.409c-0.17,0.76-0.304,1.416-0.403,1.966
	c-0.121-0.015-0.232-0.023-0.335-0.033c-0.102-0.008-0.202-0.01-0.298-0.01c-0.093,0-0.189,0.002-0.288,0.01
	c-0.097,0.01-0.206,0.02-0.322,0.033l0.021-0.107c0.481-1.93,0.721-2.979,0.721-3.147c0-0.161-0.044-0.287-0.132-0.378
	c-0.087-0.094-0.211-0.137-0.37-0.137c-0.428,0-0.765,0.274-1.012,0.822c-0.248,0.547-0.464,1.53-0.648,2.947
	c-0.117-0.015-0.224-0.023-0.326-0.033c-0.104-0.008-0.205-0.01-0.303-0.01c-0.095,0-0.194,0.002-0.301,0.01
	C68.346,87.105,68.23,87.114,68.104,87.129z M67.165,87.077c-0.188,0.052-0.373,0.093-0.56,0.118
	c-0.187,0.029-0.371,0.043-0.552,0.043c-0.695,0-1.221-0.159-1.58-0.48c-0.359-0.32-0.539-0.791-0.539-1.412
	c0-0.771,0.25-1.402,0.752-1.896c0.501-0.493,1.151-0.742,1.952-0.742c0.27,0,0.527,0.028,0.771,0.084
	c0.245,0.056,0.478,0.14,0.696,0.251c-0.074,0.15-0.142,0.309-0.207,0.477c-0.063,0.166-0.128,0.349-0.191,0.545l-0.132,0.014
	c0.003-0.018,0.004-0.039,0.006-0.061s0.003-0.052,0.003-0.092c0-0.249-0.078-0.445-0.232-0.594
	c-0.153-0.148-0.36-0.225-0.618-0.225c-0.437,0-0.809,0.225-1.117,0.67c-0.31,0.445-0.465,0.99-0.465,1.644
	c0,0.424,0.111,0.761,0.336,1.011c0.221,0.248,0.52,0.373,0.895,0.373c0.206,0,0.384-0.027,0.535-0.085
	c0.154-0.059,0.284-0.146,0.393-0.267l0.07,0.08c-0.043,0.107-0.084,0.206-0.118,0.295C67.226,86.913,67.195,86.998,67.165,87.077z
	 M60.191,87.129c0.176-0.688,0.336-1.393,0.482-2.111c0.146-0.721,0.275-1.453,0.393-2.201c0.089,0.014,0.18,0.021,0.274,0.026
	c0.096,0.005,0.2,0.011,0.312,0.011c0.107,0,0.211-0.006,0.307-0.011c0.098-0.007,0.187-0.014,0.273-0.026
	c-0.025,0.104-0.05,0.22-0.077,0.346c-0.029,0.129-0.055,0.266-0.082,0.412l-0.044,0.197h0.053c0.173-0.363,0.372-0.631,0.596-0.799
	c0.225-0.171,0.488-0.256,0.79-0.256c0.033,0.003,0.065,0.006,0.102,0.01c0.034,0.006,0.088,0.016,0.162,0.028
	c-0.065,0.185-0.114,0.379-0.151,0.578c-0.035,0.201-0.054,0.41-0.057,0.627c-0.094-0.047-0.19-0.08-0.29-0.104
	c-0.101-0.021-0.208-0.03-0.325-0.03c-0.394,0-0.686,0.194-0.88,0.589c-0.192,0.393-0.37,1.298-0.533,2.715
	c-0.12-0.014-0.232-0.023-0.34-0.031c-0.107-0.008-0.21-0.012-0.31-0.012c-0.097,0-0.198,0.002-0.304,0.01
	C60.437,87.105,60.32,87.114,60.191,87.129z M58.176,84.836H58.11c-0.439,0-0.776,0.094-1.004,0.275
	c-0.231,0.187-0.346,0.455-0.346,0.813c0,0.222,0.043,0.39,0.126,0.498c0.083,0.11,0.209,0.166,0.381,0.166
	c0.246,0,0.434-0.116,0.564-0.353C57.961,86.003,58.076,85.536,58.176,84.836z M57.922,86.59c-0.133,0.221-0.293,0.391-0.481,0.496
	c-0.188,0.107-0.408,0.162-0.664,0.162c-0.372,0-0.669-0.111-0.891-0.332c-0.221-0.223-0.332-0.516-0.332-0.886
	c0-0.451,0.144-0.789,0.434-1.011c0.287-0.225,0.816-0.379,1.584-0.467c0.016,0,0.042-0.003,0.08-0.01
	c0.471-0.05,0.704-0.277,0.704-0.689c0-0.207-0.069-0.367-0.207-0.479c-0.139-0.112-0.335-0.169-0.59-0.169
	c-0.197,0-0.376,0.038-0.541,0.115c-0.165,0.078-0.302,0.188-0.414,0.33l-0.043-0.017c0.024-0.12,0.041-0.224,0.056-0.315
	c0.011-0.09,0.022-0.172,0.028-0.241c0.196-0.122,0.417-0.22,0.662-0.282c0.244-0.064,0.509-0.097,0.794-0.097
	c0.45,0,0.8,0.097,1.05,0.288c0.248,0.191,0.373,0.457,0.373,0.804c0,0.194-0.075,0.618-0.223,1.265
	c-0.015,0.071-0.027,0.125-0.036,0.163c-0.019,0.089-0.047,0.208-0.083,0.364c-0.116,0.49-0.172,0.793-0.172,0.908
	c0,0.105,0.027,0.188,0.08,0.242c0.053,0.054,0.133,0.08,0.237,0.08c0.033,0,0.064-0.002,0.097-0.006
	c0.032-0.005,0.069-0.012,0.11-0.018l-0.028,0.212c-0.099,0.062-0.208,0.106-0.328,0.138c-0.12,0.026-0.253,0.041-0.4,0.041
	c-0.22,0-0.404-0.049-0.553-0.15C58.079,86.926,57.977,86.78,57.922,86.59z M54.368,87.059c-0.152,0.062-0.319,0.107-0.499,0.144
	c-0.181,0.03-0.381,0.047-0.6,0.047c-0.687,0-1.231-0.172-1.631-0.521c-0.402-0.345-0.604-0.812-0.604-1.399
	c0-0.767,0.227-1.394,0.681-1.886c0.455-0.487,1.035-0.735,1.742-0.735c0.562,0,0.993,0.144,1.287,0.431
	c0.295,0.285,0.444,0.696,0.444,1.236c-0.002,0.104-0.01,0.213-0.024,0.334c-0.013,0.12-0.032,0.249-0.059,0.387
	c-0.121,0-0.308-0.002-0.563-0.005s-0.448-0.004-0.58-0.004c-0.355,0-0.898,0.006-1.631,0.019h-0.048
	c-0.013,0.074-0.022,0.146-0.025,0.213c-0.005,0.066-0.006,0.125-0.006,0.183c0,0.416,0.11,0.731,0.331,0.953
	c0.222,0.217,0.544,0.325,0.966,0.325c0.18,0,0.354-0.021,0.519-0.065c0.166-0.043,0.322-0.11,0.47-0.2l0.111,0.086
	c-0.046,0.061-0.094,0.125-0.139,0.2C54.465,86.873,54.418,86.959,54.368,87.059z M52.333,84.686c0.2,0.01,0.355,0.015,0.47,0.019
	c0.115,0.004,0.223,0.005,0.326,0.005c0.094,0,0.199,0,0.314-0.001c0.116-0.001,0.292-0.009,0.53-0.017
	c0.038-0.14,0.067-0.271,0.087-0.398c0.021-0.131,0.032-0.253,0.032-0.367c0-0.263-0.049-0.46-0.146-0.588
	c-0.096-0.13-0.241-0.195-0.43-0.195c-0.305,0-0.554,0.129-0.748,0.381S52.429,84.165,52.333,84.686z M47.067,86.732
	c0.068-0.146,0.13-0.305,0.189-0.465c0.058-0.162,0.112-0.328,0.161-0.496h0.119c0.073,0.34,0.206,0.597,0.395,0.771
	c0.188,0.176,0.428,0.263,0.719,0.263c0.207,0,0.372-0.05,0.493-0.146c0.122-0.098,0.183-0.229,0.183-0.393
	c0-0.197-0.19-0.414-0.572-0.656c-0.055-0.035-0.1-0.062-0.131-0.082c-0.39-0.246-0.655-0.469-0.792-0.662
	c-0.138-0.195-0.207-0.426-0.207-0.689c0-0.434,0.147-0.787,0.44-1.064c0.292-0.273,0.674-0.411,1.144-0.411
	c0.28,0,0.54,0.046,0.779,0.134c0.24,0.089,0.465,0.225,0.68,0.406c-0.093,0.142-0.176,0.279-0.246,0.414
	c-0.071,0.138-0.132,0.277-0.185,0.419l-0.119-0.007c-0.025-0.289-0.13-0.521-0.312-0.697c-0.182-0.174-0.408-0.262-0.677-0.262
	c-0.188,0-0.341,0.05-0.464,0.15c-0.122,0.1-0.183,0.225-0.183,0.378c0,0.201,0.209,0.427,0.625,0.673
	c0.042,0.026,0.071,0.047,0.093,0.058c0.413,0.245,0.691,0.467,0.838,0.661c0.145,0.195,0.217,0.424,0.217,0.681
	c0,0.468-0.159,0.843-0.478,1.121c-0.321,0.282-0.751,0.421-1.294,0.421c-0.269,0-0.525-0.045-0.768-0.134
	C47.47,87.023,47.254,86.898,47.067,86.732z M46.016,87.059c-0.152,0.062-0.318,0.107-0.499,0.144
	c-0.181,0.03-0.381,0.047-0.6,0.047c-0.687,0-1.231-0.172-1.631-0.521c-0.402-0.345-0.603-0.812-0.603-1.399
	c0-0.767,0.227-1.394,0.681-1.886c0.455-0.487,1.035-0.735,1.742-0.735c0.563,0,0.993,0.144,1.288,0.431
	c0.295,0.285,0.444,0.696,0.444,1.236c-0.002,0.104-0.01,0.213-0.024,0.334c-0.012,0.12-0.032,0.249-0.059,0.387
	c-0.122,0-0.309-0.002-0.564-0.005s-0.447-0.004-0.579-0.004c-0.354,0-0.898,0.006-1.631,0.019h-0.048
	c-0.012,0.074-0.021,0.146-0.026,0.213c-0.004,0.066-0.005,0.125-0.005,0.183c0,0.416,0.11,0.731,0.33,0.953
	c0.223,0.217,0.544,0.325,0.966,0.325c0.181,0,0.355-0.021,0.519-0.065c0.166-0.043,0.322-0.11,0.471-0.2l0.11,0.086
	c-0.046,0.061-0.093,0.125-0.138,0.2C46.114,86.873,46.066,86.959,46.016,87.059z M43.981,84.686c0.199,0.01,0.355,0.015,0.47,0.019
	c0.115,0.004,0.224,0.005,0.326,0.005c0.095,0,0.199,0,0.315-0.001c0.116-0.001,0.292-0.009,0.53-0.017
	c0.037-0.14,0.067-0.271,0.086-0.398c0.021-0.131,0.032-0.253,0.032-0.367c0-0.263-0.049-0.46-0.146-0.588
	c-0.097-0.13-0.242-0.195-0.432-0.195c-0.304,0-0.553,0.129-0.747,0.381C44.222,83.775,44.076,84.165,43.981,84.686z M37.393,87.129
	c0.356-1.354,0.643-2.562,0.856-3.63c0.214-1.067,0.339-1.908,0.374-2.521c0.111,0.012,0.228,0.021,0.351,0.024
	c0.124,0.007,0.252,0.011,0.387,0.011c0.138,0,0.334-0.009,0.591-0.023c0.257-0.014,0.444-0.021,0.562-0.021
	c0.605,0,1.056,0.121,1.349,0.364c0.293,0.242,0.439,0.615,0.439,1.121c0,0.475-0.132,0.85-0.397,1.125
	c-0.266,0.275-0.669,0.455-1.212,0.542c0.22,0.532,0.45,1.051,0.69,1.552c0.24,0.5,0.49,0.984,0.748,1.454
	c-0.114-0.021-0.236-0.035-0.364-0.046c-0.127-0.012-0.26-0.016-0.401-0.016c-0.135,0-0.266,0.004-0.392,0.017
	c-0.125,0.011-0.251,0.026-0.374,0.045c-0.175-0.497-0.363-0.985-0.558-1.47c-0.196-0.484-0.401-0.961-0.62-1.428h-0.11
	l-0.216,1.135c-0.007,0.042-0.017,0.105-0.035,0.188c-0.129,0.7-0.208,1.227-0.233,1.574c-0.112-0.02-0.227-0.034-0.347-0.045
	c-0.12-0.012-0.244-0.016-0.374-0.016c-0.128,0-0.252,0.004-0.37,0.015C37.618,87.094,37.503,87.109,37.393,87.129z M39.352,83.868
	c0.028,0.005,0.052,0.011,0.08,0.012c0.026,0.001,0.066,0.001,0.118,0.001c0.468,0,0.832-0.13,1.089-0.392
	c0.259-0.261,0.388-0.63,0.388-1.104c0-0.33-0.074-0.57-0.223-0.717c-0.151-0.146-0.392-0.22-0.723-0.22
	c-0.021,0-0.055,0-0.096,0.005c-0.04,0.002-0.072,0.003-0.092,0.003c-0.061,0.196-0.12,0.405-0.176,0.634
	c-0.054,0.225-0.108,0.471-0.157,0.732L39.352,83.868z"/>
<g filter="url(#WhiteGlow)">
	<path fill="#0092B0" d="M154.238,55.191c0,1.172-0.942,2.102-2.139,2.102c-1.197,0-2.15-0.93-2.15-2.102s0.953-2.088,2.162-2.088
		C153.296,53.104,154.238,54.021,154.238,55.191z M150.482,55.191c0,0.931,0.701,1.668,1.629,1.668
		c0.904,0.014,1.594-0.737,1.594-1.654c0-0.932-0.688-1.682-1.618-1.682C151.186,53.523,150.482,54.273,150.482,55.191z
		 M151.77,56.275h-0.483v-2.09c0.19-0.024,0.458-0.062,0.802-0.062c0.395,0,0.573,0.062,0.715,0.164
		c0.125,0.09,0.215,0.243,0.215,0.445c0,0.257-0.188,0.42-0.433,0.498v0.024c0.204,0.063,0.308,0.229,0.369,0.511
		c0.063,0.316,0.114,0.433,0.153,0.51h-0.51c-0.064-0.077-0.104-0.256-0.166-0.51c-0.037-0.219-0.166-0.318-0.433-0.318h-0.229
		V56.275L151.77,56.275z M151.781,55.104h0.23c0.266,0,0.481-0.088,0.481-0.307c0-0.189-0.14-0.316-0.444-0.316
		c-0.128,0-0.217,0.013-0.27,0.024v0.599H151.781z"/>
</g>
</svg>
